<svg width="800" height="400" viewBox="0 0 800 400" fill="none" xmlns="http://www.w3.org/2000/svg">
<rect width="800" height="400" rx="4" fill="url(#paint0_linear_3093_129)" style=""/>
<rect x="0.5" y="0.5" width="799" height="399" rx="3.5" stroke="#2EA88B" stroke-opacity="0.1" style="stroke:#2EA88B;stroke:color(display-p3 0.1804 0.6588 0.5451);stroke-opacity:0.1;"/>
<path fill-rule="evenodd" clip-rule="evenodd" d="M419.649 179.844H411.629V195.884H395.59L395.59 203.904H411.629V219.944H419.649V203.904H435.69V195.884H419.649V179.844Z" fill="url(#paint1_linear_3093_129)" style=""/>
<path fill-rule="evenodd" clip-rule="evenodd" d="M537.199 136.529C539.542 136.529 541.441 138.429 541.441 140.771C541.441 153.922 540.014 176.695 535.974 196.546C534.783 202.399 533.347 208.092 531.615 213.257C533.101 214.47 534.592 215.71 536.101 216.967C540.055 220.259 544.141 223.661 548.636 226.963C562.505 237.153 577.939 244.542 596.182 238.755C598.416 238.046 600.8 239.283 601.509 241.516C602.217 243.749 600.981 246.133 598.748 246.842C576.528 253.89 558.134 244.469 543.613 233.8C538.952 230.376 534.443 226.626 530.337 223.212C529.659 222.648 528.991 222.093 528.336 221.55C528.09 222.073 527.839 222.586 527.584 223.088C524.048 230.047 518.933 236.25 511.527 237.011C504.677 237.715 499.157 235.836 495.433 232.056C491.795 228.361 490.357 223.339 490.609 218.622C490.861 213.914 492.812 209.118 496.481 205.73C500.26 202.24 505.581 200.516 511.844 201.641C516.041 202.395 520.297 204.777 524.47 207.735C525.668 203.772 526.729 199.43 527.661 194.855C531.56 175.694 532.957 153.509 532.957 140.771C532.957 138.429 534.856 136.529 537.199 136.529ZM521.493 216.075C516.888 212.609 513.279 210.519 510.343 209.991C506.576 209.315 503.974 210.359 502.237 211.963C500.389 213.669 499.23 216.29 499.081 219.076C498.932 221.853 499.801 224.399 501.478 226.102C503.07 227.719 505.874 229.063 510.659 228.572C513.481 228.282 516.744 225.692 520.021 219.245C520.527 218.247 521.018 217.189 521.493 216.075Z" fill="url(#paint2_linear_3093_129)" style=""/>
<path d="M269.804 212.478C276.799 212.478 282.471 206.807 282.471 199.811C282.471 192.816 276.799 187.145 269.804 187.145C262.808 187.145 257.137 192.816 257.137 199.811C257.137 206.807 262.808 212.478 269.804 212.478Z" fill="url(#paint3_linear_3093_129)" style=""/>
<path fill-rule="evenodd" clip-rule="evenodd" d="M209.251 192C206.194 194.761 204.929 197.404 204.929 199.809C204.929 202.213 206.194 204.857 209.251 207.617C212.308 210.377 216.905 213.004 222.849 215.273C234.715 219.804 251.317 222.671 269.808 222.671C288.299 222.671 304.901 219.804 316.767 215.273C322.711 213.004 327.308 210.377 330.365 207.617C333.423 204.857 334.688 202.213 334.688 199.809C334.688 197.404 333.423 194.761 330.365 192C327.308 189.241 322.711 186.614 316.767 184.344C304.901 179.814 288.299 176.947 269.808 176.947C251.317 176.947 234.715 179.814 222.849 184.344C216.905 186.614 212.308 189.241 209.251 192ZM220.645 178.572C233.379 173.71 250.761 170.768 269.808 170.768C288.855 170.768 306.238 173.71 318.971 178.572C325.328 180.999 330.684 183.964 334.506 187.414C338.327 190.864 340.866 195.047 340.866 199.809C340.866 204.571 338.327 208.754 334.506 212.204C330.684 215.654 325.328 218.619 318.971 221.046C306.238 225.908 288.855 228.85 269.808 228.85C250.761 228.85 233.379 225.908 220.645 221.046C214.289 218.619 208.932 215.654 205.111 212.204C201.289 208.754 198.75 204.571 198.75 199.809C198.75 195.047 201.289 190.864 205.111 187.414C208.932 183.964 214.289 180.999 220.645 178.572Z" fill="url(#paint4_linear_3093_129)" style=""/>
<path fill-rule="evenodd" clip-rule="evenodd" d="M246.288 143.465C242.369 142.197 239.447 142.423 237.365 143.626C235.283 144.828 233.625 147.245 232.764 151.273C231.902 155.3 231.926 160.595 232.932 166.877C234.942 179.419 240.76 195.23 250.005 211.244C259.251 227.258 270.035 240.202 279.892 248.213C284.829 252.225 289.402 254.893 293.321 256.161C297.24 257.429 300.162 257.202 302.244 256C304.326 254.798 305.984 252.381 306.845 248.353C307.707 244.325 307.683 239.03 306.677 232.748C304.667 220.207 298.849 204.396 289.604 188.382C280.358 172.368 269.574 159.424 259.717 151.413C254.78 147.4 250.207 144.732 246.288 143.465ZM263.615 146.618C274.192 155.214 285.431 168.797 294.955 185.292C304.478 201.787 310.622 218.312 312.778 231.771C313.854 238.489 313.964 244.61 312.888 249.645C311.811 254.679 309.458 258.97 305.334 261.351C301.21 263.732 296.317 263.625 291.419 262.04C286.52 260.455 281.274 257.299 275.994 253.008C265.417 244.411 254.178 230.828 244.654 214.333C235.131 197.838 228.987 181.313 226.831 167.855C225.755 161.137 225.645 155.015 226.721 149.98C227.798 144.946 230.151 140.655 234.275 138.275C238.399 135.894 243.292 136.001 248.19 137.586C253.088 139.17 258.335 142.327 263.615 146.618Z" fill="url(#paint5_linear_3093_129)" style=""/>
<path fill-rule="evenodd" clip-rule="evenodd" d="M306.846 151.269C305.984 147.241 304.327 144.824 302.244 143.622C300.162 142.419 297.24 142.193 293.321 143.46C289.403 144.728 284.829 147.396 279.892 151.409C270.035 159.42 259.251 172.364 250.006 188.378C240.76 204.391 234.942 220.202 232.933 232.744C231.926 239.026 231.903 244.321 232.764 248.349C233.626 252.376 235.283 254.794 237.365 255.996C239.448 257.198 242.369 257.425 246.288 256.157C250.207 254.889 254.781 252.221 259.718 248.209C269.575 240.198 280.358 227.254 289.604 211.24C298.85 195.226 304.668 179.415 306.677 166.873C307.683 160.591 307.707 155.296 306.846 151.269ZM312.778 167.851C310.622 181.309 304.479 197.834 294.955 214.329C285.432 230.824 274.192 244.407 263.615 253.004C258.335 257.295 253.089 260.451 248.19 262.036C243.292 263.62 238.4 263.728 234.276 261.347C230.152 258.966 227.799 254.675 226.722 249.641C225.645 244.606 225.755 238.485 226.832 231.767C228.988 218.308 235.131 201.783 244.654 185.288C254.178 168.793 265.417 155.21 275.995 146.614C281.275 142.322 286.521 139.166 291.419 137.581C296.318 135.997 301.21 135.889 305.334 138.27C309.458 140.651 311.811 144.942 312.888 149.976C313.965 155.011 313.854 161.132 312.778 167.851Z" fill="url(#paint6_linear_3093_129)" style=""/>
<defs>
<linearGradient id="paint0_linear_3093_129" x1="400" y1="0" x2="400" y2="400" gradientUnits="userSpaceOnUse">
<stop stop-color="#EBFFFA" style="stop-color:#EBFFFA;stop-color:color(display-p3 0.9234 1.0000 0.9816);stop-opacity:1;"/>
<stop offset="1" stop-color="white" style="stop-color:white;stop-opacity:1;"/>
</linearGradient>
<linearGradient id="paint1_linear_3093_129" x1="415.64" y1="179.844" x2="415.64" y2="219.944" gradientUnits="userSpaceOnUse">
<stop stop-color="#62E7C7" style="stop-color:#62E7C7;stop-color:color(display-p3 0.3843 0.9059 0.7804);stop-opacity:1;"/>
<stop offset="1" stop-color="#2CA689" style="stop-color:#2CA689;stop-color:color(display-p3 0.1725 0.6510 0.5373);stop-opacity:1;"/>
</linearGradient>
<linearGradient id="paint2_linear_3093_129" x1="546.144" y1="140.771" x2="546.144" y2="245.035" gradientUnits="userSpaceOnUse">
<stop stop-color="#62E7C7" style="stop-color:#62E7C7;stop-color:color(display-p3 0.3843 0.9059 0.7804);stop-opacity:1;"/>
<stop offset="1" stop-color="#2CA689" style="stop-color:#2CA689;stop-color:color(display-p3 0.1725 0.6510 0.5373);stop-opacity:1;"/>
</linearGradient>
<linearGradient id="paint3_linear_3093_129" x1="269.804" y1="187.145" x2="269.804" y2="212.478" gradientUnits="userSpaceOnUse">
<stop stop-color="#62E7C7" style="stop-color:#62E7C7;stop-color:color(display-p3 0.3843 0.9059 0.7804);stop-opacity:1;"/>
<stop offset="1" stop-color="#2CA689" style="stop-color:#2CA689;stop-color:color(display-p3 0.1725 0.6510 0.5373);stop-opacity:1;"/>
</linearGradient>
<linearGradient id="paint4_linear_3093_129" x1="269.808" y1="170.768" x2="269.808" y2="228.85" gradientUnits="userSpaceOnUse">
<stop stop-color="#62E7C7" style="stop-color:#62E7C7;stop-color:color(display-p3 0.3843 0.9059 0.7804);stop-opacity:1;"/>
<stop offset="1" stop-color="#2CA689" style="stop-color:#2CA689;stop-color:color(display-p3 0.1725 0.6510 0.5373);stop-opacity:1;"/>
</linearGradient>
<linearGradient id="paint5_linear_3093_129" x1="294.955" y1="185.292" x2="244.654" y2="214.333" gradientUnits="userSpaceOnUse">
<stop stop-color="#62E7C7" style="stop-color:#62E7C7;stop-color:color(display-p3 0.3843 0.9059 0.7804);stop-opacity:1;"/>
<stop offset="1" stop-color="#2CA689" style="stop-color:#2CA689;stop-color:color(display-p3 0.1725 0.6510 0.5373);stop-opacity:1;"/>
</linearGradient>
<linearGradient id="paint6_linear_3093_129" x1="294.955" y1="214.329" x2="244.654" y2="185.288" gradientUnits="userSpaceOnUse">
<stop stop-color="#62E7C7" style="stop-color:#62E7C7;stop-color:color(display-p3 0.3843 0.9059 0.7804);stop-opacity:1;"/>
<stop offset="1" stop-color="#2CA689" style="stop-color:#2CA689;stop-color:color(display-p3 0.1725 0.6510 0.5373);stop-opacity:1;"/>
</linearGradient>
</defs>
</svg>
